<?xml version="1.0" encoding="UTF-8" standalone="no"?>
<!DOCTYPE svg PUBLIC "-//W3C//DTD SVG 1.1//EN" "http://www.w3.org/Graphics/SVG/1.1/DTD/svg11.dtd">
<svg width="100%" height="100%" viewBox="0 0 84 82" version="1.1" xmlns="http://www.w3.org/2000/svg" xmlns:xlink="http://www.w3.org/1999/xlink" xml:space="preserve" xmlns:serif="http://www.serif.com/" style="fill-rule:evenodd;clip-rule:evenodd;stroke-linecap:round;stroke-linejoin:round;stroke-miterlimit:1.5;">
    <g transform="matrix(1,0,0,1,-128.036781,-199.116842)">
        <g id="Magnolia---1" serif:id="Magnolia - 1" transform="matrix(0.06379,0,0,0.067258,90.275664,147.897104)">
            <path d="M1855.923,1199.71C1875.583,1219.838 1892.403,1240.943 1891.881,1268.439C1890.844,1323.134 1868.001,1367.004 1859.882,1393.532C1855.988,1406.254 1877.36,1504.916 1837.955,1544.63C1767.529,1615.608 1681.02,1618.672 1589.705,1601.441C1589.705,1601.441 1659.901,1682.598 1674.783,1722.871C1708.04,1812.876 1651.539,1860.956 1589.884,1900.138C1528.633,1939.064 1423.299,1938.418 1348.204,1930.32C1239.651,1918.613 1180.34,1895.679 1146.296,1862.047C1146.296,1862.047 1028.604,1959.83 945.524,1959.777C860.951,1959.722 795.692,1936.698 745.88,1905.909C673.114,1860.932 630.407,1820.349 620.811,1784.607C599.023,1703.451 608.217,1635.872 628.927,1575.177C650.137,1513.014 767.234,1479.505 767.234,1479.505C674.954,1419.475 670.062,1302.335 665.148,1272.73C651.612,1191.196 678.696,1118.776 738.558,1053.71C796.538,990.69 879.393,986.153 951.926,991.405C1004.957,995.244 1039.908,1008.606 1068.959,1030.049C1101.78,1054.275 1141.258,1120.923 1141.258,1120.923C1150.981,969.702 1170.389,897.213 1189.56,874.164C1239.899,813.646 1301.781,779.443 1377.665,777.164C1469.598,774.403 1527.162,814.441 1563.19,876.221C1586.097,915.501 1603.447,956.101 1609.639,999.349C1626.5,1117.108 1595.381,1258.62 1595.381,1258.62C1660.155,1221.541 1724.897,1199.657 1789.624,1185.105C1826.115,1176.902 1843.52,1187.011 1855.923,1199.71Z" style="fill:none;stroke:black;stroke-width:31.78px;"/>
            <path d="M1309.606,1250.015C1320.674,1259.414 1332.506,1272.956 1342.735,1296.378C1348.67,1309.968 1359.321,1322.586 1369.921,1338.62C1387.8,1365.665 1406.026,1401.101 1407.568,1460.922C1407.789,1469.467 1400.653,1476.575 1391.643,1476.784C1382.633,1476.993 1375.139,1470.225 1374.919,1461.679C1373.344,1400.599 1351.905,1368.566 1334.22,1343.361C1325.472,1330.892 1317.619,1319.811 1312.562,1308.232C1297.415,1273.551 1277.357,1266.263 1265.402,1256.628C1252.881,1246.536 1244.802,1235.336 1248.622,1208.964L1251.323,1200.535L1253.859,1196.661L1257.145,1193.29L1261.01,1190.614L1265.213,1188.73L1273.803,1187.225C1290.52,1186.891 1320.307,1205.765 1310.588,1247.78L1309.606,1250.015Z"/>
            <path d="M1404.392,1436.399C1404.665,1435.882 1405.34,1434.562 1405.719,1433.456C1411.46,1416.684 1406.859,1409.388 1402.942,1401.946C1400.747,1397.778 1398.722,1393.573 1397.35,1388.862L1394.764,1384.742L1393.132,1378.266L1393.275,1371.644L1395.147,1365.566L1398.106,1361.049L1402.212,1357.466L1407.727,1354.945L1413.495,1354.106L1419.982,1355.14L1425.499,1358.048L1429.104,1361.613L1431.368,1365.285L1432.962,1369.73C1433.973,1373.737 1433.893,1378.165 1433.87,1378.874C1433.792,1381.312 1433.121,1383.602 1431.994,1385.624L1431.387,1387.062C1432.567,1389.251 1433.89,1391.327 1435.002,1393.558C1440.67,1404.938 1445.308,1418.113 1436.782,1443.02C1432.248,1456.268 1425.842,1460.867 1419.28,1463.994C1417.653,1464.769 1415.97,1465.417 1414.219,1466.032C1411.787,1466.886 1408.858,1467.441 1405.903,1471.205C1400.52,1478.061 1390.281,1479.482 1383.053,1474.377C1375.824,1469.272 1374.326,1459.561 1379.709,1452.705C1385.317,1445.561 1390.788,1442.048 1395.836,1439.707C1397.871,1438.764 1399.836,1438.042 1401.738,1437.381C1402.52,1437.109 1403.825,1436.615 1404.392,1436.399Z"/>
            <path d="M1455.78,1275.877C1456.996,1281.582 1457.879,1287.799 1458.491,1294.678C1460.589,1318.288 1459.561,1350.71 1460.024,1399.457C1460.487,1448.258 1413.836,1469.834 1403.262,1475.734C1395.494,1480.068 1385.477,1477.605 1380.907,1470.237C1376.338,1462.87 1378.934,1453.369 1386.702,1449.035C1393.792,1445.08 1427.676,1432.454 1427.366,1399.736C1426.987,1359.786 1427.663,1330.985 1426.701,1309.057C1425.863,1289.951 1424.061,1276.749 1418.057,1265.894C1409.174,1249.834 1403.354,1236.199 1403.252,1227.197L1403.621,1222.317L1405.109,1217.106L1408.047,1211.979L1412.327,1207.632C1417.703,1203.401 1427.14,1200.044 1442.693,1201.494L1447.8,1202.481L1452.401,1204.331L1457.992,1208.14L1462.123,1212.529C1469.031,1221.404 1472.694,1237.182 1471.602,1249.86C1471.051,1256.253 1469.326,1261.874 1466.974,1265.914L1461.458,1272.506L1455.78,1275.877Z"/>
            <path d="M1344.065,1395.163C1353.743,1403.008 1359.988,1412.495 1365.11,1421.936C1367.954,1427.178 1370.383,1432.357 1373.154,1436.916C1374.982,1439.924 1376.734,1442.732 1379.705,1444.318C1382.615,1445.871 1386.46,1445.912 1391.755,1445.125C1400.658,1443.801 1409.02,1449.583 1410.416,1458.028C1411.812,1466.472 1405.716,1474.403 1396.812,1475.727C1382.925,1477.792 1372.868,1475.827 1365.011,1471.988C1356.981,1468.065 1350.998,1461.954 1346.056,1454.299C1341.971,1447.969 1338.624,1440.375 1334.246,1432.857C1329.526,1424.75 1323.294,1416.578 1310.698,1412.088C1294.343,1406.258 1286.851,1400.775 1282.445,1396.093C1278.096,1391.47 1276.771,1387.305 1274.092,1382.638L1272.14,1378.265L1271.165,1373.234L1271.539,1367.914L1273.293,1362.955L1277.933,1356.875L1281.972,1353.83L1286.095,1351.737C1302.854,1344.769 1339.177,1350.679 1344.413,1382.599C1344.947,1385.852 1345.072,1388.478 1344.966,1390.541L1344.065,1395.163Z"/>
            <path d="M1161.474,1340.497C1166.858,1341.957 1172.185,1344.478 1177.714,1347.902C1196.404,1359.475 1219.22,1385.243 1275.803,1394.471L1282.076,1396.654L1288.464,1401.545C1296.632,1409.499 1309.208,1429.616 1310.242,1439.587C1314.522,1480.865 1339.371,1487.573 1349.125,1472.574C1356.876,1460.655 1363.462,1455.791 1369.759,1453.459C1374.425,1451.73 1379.331,1451.198 1385.26,1451.711C1389.934,1452.115 1395.779,1453.387 1404.062,1454.199C1413.027,1455.078 1419.553,1462.694 1418.627,1471.197C1417.701,1479.699 1409.67,1485.889 1400.705,1485.01C1392.708,1484.227 1384.292,1483.007 1381.709,1482.622C1380.721,1483.757 1378.552,1486.328 1376.922,1488.835C1363.28,1509.813 1332.155,1518.85 1307.27,1501.872C1293.616,1492.558 1281.024,1474.295 1277.739,1442.618C1277.542,1440.717 1275.847,1438.16 1274.212,1435.417C1271.908,1431.551 1267.918,1426.598 1265.981,1424.263C1213.628,1414.833 1187.248,1393.376 1167.736,1379.232C1163.588,1376.225 1159.875,1373.599 1156.208,1371.78C1153.541,1370.458 1151.021,1369.623 1148.041,1370.454C1139.825,1372.744 1140.802,1374.193 1131.78,1372.642C1094.544,1366.239 1090.576,1372.953 1064.837,1345.113L1061.372,1340.272L1059.311,1335.35L1058.277,1330.398L1058.123,1325.374L1058.871,1320.248L1060.674,1315.046L1063.777,1309.926L1068.391,1305.279C1075.45,1299.745 1087.343,1295.683 1105.38,1303.632C1134.951,1316.664 1149.167,1326.582 1155.603,1332.913C1158.298,1335.564 1160.055,1337.923 1161.221,1339.888L1161.474,1340.497Z"/>
            <path d="M1266.127,1444.378C1278.741,1446.332 1291.33,1450.064 1300.697,1457.577C1301.567,1458.275 1304.638,1460.536 1312.958,1464.237C1321.118,1467.867 1324.635,1477.097 1320.808,1484.836C1316.98,1492.575 1307.249,1495.911 1299.089,1492.281C1285.722,1486.334 1281.006,1482.349 1279.607,1481.228C1274.228,1476.913 1266.573,1475.739 1259.334,1474.723C1247.957,1473.125 1236.946,1472.417 1229.803,1470.109L1221.13,1465.914L1215.441,1460.312L1212.874,1455.502L1211.629,1450.285L1211.638,1445.279L1212.544,1440.728L1214.143,1437.02L1216.413,1434.023L1219.356,1431.552L1223.281,1429.556L1230.359,1428.191C1232.505,1428.098 1235.179,1428.248 1238.143,1428.762C1247.005,1430.297 1258.778,1435.469 1265.296,1443.288C1265.592,1443.643 1265.869,1444.007 1266.127,1444.378Z"/>
            <path d="M1440.993,1463.762C1442.875,1461.987 1444.95,1459.956 1447.38,1458.107C1454.344,1452.808 1463.08,1448.568 1474.632,1448.526C1477.516,1448.515 1480.23,1449.216 1482.588,1450.454C1486.119,1450.78 1489.499,1452.194 1492.167,1454.561C1496.265,1458.2 1498.106,1463.58 1497.042,1468.807C1495.214,1477.779 1492.431,1483.533 1487.609,1487.675L1480.291,1492.101C1478.189,1492.963 1475.715,1493.7 1472.745,1494.23C1467.137,1495.232 1458.807,1495.51 1446.132,1494.979C1445.778,1494.964 1445.426,1494.939 1445.077,1494.903C1432.932,1494.978 1425.818,1493.081 1418.462,1490.845C1411.97,1488.871 1405.229,1486.435 1391.205,1485.709C1382.206,1485.243 1375.299,1477.935 1375.79,1469.4C1376.282,1460.864 1383.987,1454.313 1392.986,1454.78C1407.826,1455.548 1416.504,1457.75 1423.78,1459.926C1429.297,1461.577 1433.673,1463.285 1440.993,1463.762Z"/>
            <path d="M1494.107,1494.804C1496.596,1492.763 1499.738,1491.429 1503.188,1491.107C1505.201,1490.919 1521.481,1489.432 1535.402,1490.465C1543.07,1491.034 1550.116,1492.486 1554.988,1494.653L1560.508,1497.854L1564.209,1501.308L1566.875,1505.269L1568.589,1510.054L1568.995,1515.069L1568.23,1519.694L1565.729,1525.451C1564.865,1526.915 1563.762,1528.481 1562.356,1530.13L1557.376,1534.366L1549.901,1537.381C1544.455,1538.659 1535.9,1538.531 1525.304,1536.398C1494.685,1530.234 1440.019,1507.732 1407.627,1494.394C1397.152,1490.08 1386.766,1486.08 1385.439,1485.57C1377.277,1483.833 1371.717,1476.425 1372.844,1468.413C1374.036,1459.94 1382.256,1453.979 1391.19,1455.109C1392.829,1455.317 1398.151,1456.87 1405.897,1459.967C1423.885,1467.158 1461.267,1483.245 1494.107,1494.804Z"/>
            <path d="M1404.467,1561.879C1404.735,1562.12 1404.997,1562.37 1405.251,1562.631C1406.711,1564.132 1419.457,1575.16 1427.613,1585.101C1433.004,1591.671 1436.407,1598.287 1437.226,1602.993L1437.537,1606.651L1437.012,1610.981L1434.197,1617.193L1429.123,1622.126L1424.879,1624.321L1420.874,1625.48C1401.303,1629.43 1384.778,1616.237 1377.024,1589.616C1365.283,1549.312 1369.705,1475.997 1370.249,1467.531C1370.797,1458.999 1378.545,1452.494 1387.541,1453.014C1396.537,1453.534 1403.396,1460.883 1402.847,1469.415C1402.428,1475.947 1399.097,1524.602 1404.467,1561.879Z"/>
            <path d="M1284.643,1525.091C1287.188,1523.056 1289.649,1521.461 1292.117,1520.158C1302.688,1514.58 1314.146,1514.889 1338.184,1511.527C1343.571,1510.773 1347.126,1510.204 1349.555,1508.369C1351.819,1506.659 1352.749,1504.016 1354.278,1500.67C1358.152,1492.192 1362.525,1480.434 1371.882,1463.955C1376.156,1456.43 1386.068,1453.61 1394.003,1457.664C1401.937,1461.717 1404.91,1471.118 1400.636,1478.643C1389.322,1498.567 1385.592,1511.378 1380.844,1519.745C1373.785,1532.185 1365.821,1538.972 1342.949,1542.171C1332.242,1543.669 1324.301,1544.173 1317.859,1544.917C1315.088,1545.237 1312.738,1545.503 1310.586,1546.165C1309.047,1547.973 1307.054,1549.477 1304.675,1550.507C1303.961,1550.816 1303.253,1551.121 1302.554,1551.42C1299.845,1554.149 1296.959,1557.918 1293.231,1563.027C1285.761,1573.268 1273.872,1578.991 1262.893,1580.612C1254.503,1581.851 1246.69,1580.641 1241.242,1578.16L1235.337,1574.463L1230.249,1568.283L1228.608,1564.308L1227.859,1560.074L1228.887,1552.087L1231.896,1546.364L1234.988,1543.275L1238.226,1541.229C1241.157,1539.752 1250.123,1539.611 1284.643,1525.091Z"/>
            <path d="M1224.291,1484.901C1236.186,1482.21 1245.683,1482.676 1257.498,1484.04C1272.235,1485.741 1291.411,1489.245 1328.869,1487.959C1343.801,1487.446 1346.981,1484.138 1353.731,1478.476C1358.311,1474.634 1363.936,1470.112 1372.497,1464.943C1380.1,1460.352 1390.202,1462.48 1395.042,1469.69C1399.882,1476.901 1397.639,1486.482 1390.036,1491.072C1380.804,1496.647 1375.841,1501.348 1371.417,1504.99C1361.703,1512.989 1354.049,1518.09 1330.051,1518.914C1289.904,1520.292 1269.347,1516.612 1253.551,1514.788C1246.572,1513.982 1240.777,1513.665 1234.095,1514.791L1233.433,1515.062L1230.56,1515.503C1226.274,1516.506 1221.528,1518.103 1215.857,1520.507C1197.737,1528.191 1165.599,1529.185 1152.203,1523.775L1147.364,1521.321L1144.033,1518.809L1141.344,1515.903L1139.07,1512.125L1137.67,1507.638L1137.444,1502.96L1138.546,1497.869L1141.76,1491.934L1145.807,1487.795L1152.067,1484.236C1157.022,1482.237 1164.613,1481.12 1173.576,1481.187C1189.372,1481.305 1217.995,1484.237 1224.291,1484.901Z"/>
            <path d="M1435.17,1519.579C1437.274,1519.798 1439.368,1520.411 1441.332,1521.45C1448.081,1525.021 1455.673,1526.39 1460.959,1527.638C1465.103,1528.616 1468.443,1529.643 1470.644,1530.669L1475.276,1533.544L1478.986,1537.677L1481.258,1543.155L1481.373,1549.23L1479.958,1553.63L1477.117,1557.901C1475.416,1559.851 1472.211,1562.577 1466.602,1565.694L1459.269,1568.23L1454.128,1568.542L1449.596,1567.994C1444.658,1567.005 1438.464,1564.341 1431.836,1559.686C1413.22,1546.611 1387.698,1515.495 1376.227,1479.949C1373.59,1471.776 1378.445,1463.109 1387.063,1460.607C1395.681,1458.106 1404.819,1462.711 1407.457,1470.884C1413.502,1489.617 1424.25,1506.908 1435.17,1519.579Z"/>
            <path d="M1320.782,1478.594C1329.725,1479.652 1336.08,1487.397 1334.965,1495.879C1333.849,1504.362 1325.683,1510.389 1316.74,1509.331C1190.122,1494.353 1190.068,1498.92 1077.173,1509.637C1068.205,1510.488 1060.195,1504.274 1059.298,1495.768C1058.4,1487.263 1064.952,1479.667 1073.92,1478.815C1190.253,1467.772 1190.308,1463.159 1320.782,1478.594Z"/>
            <path d="M1359.984,1462.722C1368.191,1462.446 1375.485,1468.072 1376.703,1475.955C1378.011,1484.413 1371.832,1492.286 1362.915,1493.526C1332.142,1497.804 1316.22,1491.759 1307.804,1484.922C1297.326,1476.411 1295.974,1460.887 1295.953,1453.647C1289.6,1446.467 1284.657,1439.026 1279.99,1431.212C1270.082,1414.624 1261.82,1395.922 1239.589,1373.749C1213.125,1347.354 1132.152,1219.109 1124.709,1114.989C1124.099,1106.461 1130.905,1099.068 1139.897,1098.49C1148.889,1097.911 1156.684,1104.366 1157.294,1112.894C1164.179,1209.217 1238.773,1327.985 1263.256,1352.403C1283.283,1372.378 1293.421,1389.736 1302.361,1405.462C1313.517,1425.085 1322.335,1441.766 1354.028,1457.631C1356.51,1458.874 1358.522,1460.643 1359.984,1462.722Z"/>
            <path d="M1407.834,1478.055C1398.889,1479.095 1390.736,1473.05 1389.64,1464.566C1388.544,1456.081 1394.917,1448.349 1403.863,1447.31C1410.032,1446.593 1435.167,1442.517 1466.342,1401.351C1494.96,1363.563 1550.662,1311.814 1580.682,1248.952C1584.401,1241.165 1594.085,1237.707 1602.294,1241.234C1610.504,1244.76 1614.151,1253.945 1610.432,1261.732C1579.436,1326.638 1522.417,1380.404 1492.868,1419.421C1451.417,1474.156 1416.037,1477.102 1407.834,1478.055Z"/>
            <path d="M1371.971,1485.146C1374.845,1477.045 1384.113,1472.679 1392.655,1475.405C1401.197,1478.13 1405.8,1486.92 1402.926,1495.022C1392.078,1525.611 1382.402,1537.7 1364.596,1552.659C1349.02,1565.745 1326.155,1581.23 1287.58,1617.655C1230.907,1671.171 1192.466,1745.634 1160.223,1867.606C1158.031,1875.897 1149.155,1880.941 1140.413,1878.862C1131.67,1876.783 1126.353,1868.364 1128.544,1860.073C1162.709,1730.831 1204.486,1652.41 1264.538,1595.705C1296.195,1565.811 1317.521,1549.647 1332.969,1537.506C1353.103,1521.683 1361.82,1513.769 1371.971,1485.146Z"/>
            <path d="M1392.746,1494.235C1385.443,1489.226 1383.802,1479.535 1389.084,1472.609C1394.365,1465.683 1404.582,1464.126 1411.885,1469.136C1512.943,1538.455 1502.053,1531.77 1529,1534.922C1537.944,1535.969 1544.311,1543.706 1543.207,1552.189C1542.104,1560.673 1533.946,1566.711 1525.001,1565.664C1494.871,1562.139 1505.744,1571.744 1392.746,1494.235Z"/>
            <path d="M1838.557,1187.403C1838.557,1187.403 1854.716,1232.849 1814.862,1291.4C1788.211,1330.554 1818.619,1427.741 1788.823,1467.199C1749.053,1519.864 1615.69,1548.021 1515.09,1550.098C1514.516,1550.11 1568.169,1585.565 1594.708,1603.298" style="fill:none;stroke:black;stroke-width:31.78px;"/>
            <path d="M1076.011,1478.757C1085.015,1478.376 1092.651,1485 1093.052,1493.539C1093.453,1502.079 1086.47,1509.32 1077.466,1509.701C1000.593,1512.951 1001.532,1506.834 926.315,1493.924C873.503,1484.859 857.272,1489.813 766.824,1494.837C757.827,1495.337 750.094,1488.815 749.568,1480.282C749.041,1471.748 755.917,1464.415 764.915,1463.915C859.742,1458.648 876.762,1453.94 932.131,1463.443C1003.747,1475.736 1002.819,1481.851 1076.011,1478.757Z"/>
            <path d="M667.675,1290.882C675.65,1334.574 725.024,1441.677 868.324,1473.586" style="fill:none;stroke:black;stroke-width:31.78px;"/>
            <path d="M1682.38,1749.539C1682.38,1749.539 1703.998,1807.118 1572.405,1856.665C1394.639,1923.598 1301.016,1891.832 1227.835,1875.043C1155.241,1858.389 1159.172,1813.998 1159.172,1813.998" style="fill:none;stroke:black;stroke-width:31.78px;"/>
            <path d="M610.003,1673.635C610.003,1673.635 622.073,1729.821 716.03,1804.605C784.91,1859.429 839.209,1900.036 911.311,1897.855C1080.235,1892.745 1153.059,1817.792 1156.005,1815.47" style="fill:none;stroke:black;stroke-width:31.78px;"/>
        </g>
    </g>
</svg>
