<svg width="950" height="67" viewBox="0 0 950 67" fill="none" xmlns="http://www.w3.org/2000/svg">
<path d="M-1.76862 65.0879L1.78338 1.53588H10.7114L32.8874 50.0159L54.1034 1.53588H63.8954L67.4474 65.0879H57.6554L55.0634 10.4639H54.6794L30.4874 65.0879H29.1434L5.43138 12.6719H5.04738L2.45538 65.0879H-1.76862ZM76.6319 65.0879L105.144 -0.000112534H106.584L135.096 65.0879H124.632L117.432 47.8079H88.9199L81.8159 65.0879H76.6319ZM90.3599 44.1599H115.896L103.224 13.0559L90.3599 44.1599ZM172.476 66.2399C167.996 66.2399 163.644 65.6319 159.42 64.4159C155.26 63.1359 151.484 61.2159 148.092 58.6559C144.764 56.0959 142.108 52.8639 140.124 48.9599C138.204 45.0559 137.244 40.4479 137.244 35.1359C137.244 28.9919 138.364 23.7439 140.604 19.3919C142.908 14.9759 145.884 11.3599 149.532 8.54389C153.244 5.72789 157.244 3.67989 161.532 2.39989C165.884 1.05589 170.108 0.383888 174.204 0.383888C176.188 0.383888 178.268 0.543888 180.444 0.863888C182.62 1.18389 184.636 1.56789 186.492 2.01589C188.348 2.46389 189.788 2.91189 190.812 3.35989L189.852 9.79189C186.14 8.19189 182.556 6.87989 179.1 5.85589C175.644 4.83189 172.06 4.31989 168.348 4.31989C161.948 5.91989 156.86 9.34389 153.084 14.5919C149.308 19.7759 147.42 26.1119 147.42 33.5999C147.42 39.9999 148.572 45.3759 150.876 49.7279C153.244 54.0799 156.444 57.3759 160.476 59.6159C164.508 61.7919 169.116 62.8799 174.3 62.8799C175.772 62.8799 177.244 62.8159 178.716 62.6879C180.188 62.4959 181.628 62.2399 183.036 61.9199V37.7279H192.348V62.9759C190.428 63.7439 188.284 64.3839 185.916 64.8959C183.548 65.3439 181.18 65.6639 178.812 65.8559C176.508 66.1119 174.396 66.2399 172.476 66.2399ZM254.718 66.1439L212.67 13.5359H212.286V65.0879H208.062V1.53588H215.166L251.742 47.7119H252.126V1.53588H256.35V66.1439H254.718ZM296.921 66.2399C291.609 66.2399 286.777 65.0559 282.425 62.6879C278.073 60.2559 274.617 56.7359 272.057 52.1279C269.497 47.4559 268.217 41.7599 268.217 35.0399C268.217 29.7919 268.921 25.2159 270.329 21.3119C271.737 17.4079 273.625 14.1439 275.993 11.5199C278.425 8.83189 281.113 6.68789 284.057 5.08789C287.065 3.42389 290.137 2.23989 293.273 1.53588C296.473 0.767887 299.545 0.383888 302.489 0.383888C307.865 0.383888 312.729 1.56789 317.081 3.93589C321.433 6.30389 324.889 9.79189 327.449 14.3999C330.009 19.0079 331.289 24.6719 331.289 31.3919C331.289 36.6399 330.585 41.2159 329.177 45.1199C327.769 49.0239 325.849 52.3199 323.417 55.0079C320.985 57.6959 318.265 59.8719 315.257 61.5359C312.313 63.1999 309.241 64.3839 306.041 65.0879C302.905 65.8559 299.865 66.2399 296.921 66.2399ZM299.705 63.0719C303.545 63.0719 306.809 62.1439 309.497 60.2879C312.249 58.4319 314.457 56.0319 316.121 53.0879C317.849 50.1439 319.097 46.9439 319.865 43.4879C320.697 40.0319 321.113 36.7359 321.113 33.5999C321.113 29.6319 320.697 25.8879 319.865 22.3679C319.097 18.7839 317.785 15.6479 315.929 12.9599C314.137 10.2719 311.705 8.15989 308.633 6.62389C305.625 5.08789 301.849 4.31989 297.305 4.31989C293.017 5.79189 289.465 8.03189 286.649 11.0399C283.833 14.0479 281.753 17.5039 280.409 21.4079C279.065 25.3119 278.393 29.3759 278.393 33.5999C278.393 37.5039 278.777 41.2479 279.545 44.8319C280.377 48.3519 281.625 51.4879 283.289 54.2399C284.953 56.9919 287.129 59.1679 289.817 60.7679C292.569 62.3039 295.865 63.0719 299.705 63.0719ZM343.156 65.0879V1.53588H352.564V59.9039C354.228 60.3519 355.892 60.7679 357.556 61.1519C359.284 61.4719 360.756 61.6319 361.972 61.6319L379.348 58.6559L378.196 65.0879H343.156ZM389.937 65.0879V1.53588H398.769V65.0879H389.937ZM408.413 65.0879L436.925 -0.000112534H438.365L466.877 65.0879H456.413L449.213 47.8079H420.701L413.597 65.0879H408.413ZM422.141 44.1599H447.677L435.005 13.0559L422.141 44.1599ZM516.98 66.2399C513.204 66.2399 509.62 65.7919 506.228 64.8959C502.9 63.9999 500.308 63.1999 498.452 62.4959V57.9839C499.54 58.4959 501.012 59.1679 502.868 59.9999C504.724 60.7679 506.772 61.4399 509.012 62.0159C511.252 62.5919 513.428 62.8799 515.54 62.8799C519.764 62.8799 523.156 61.7919 525.716 59.6159C528.34 57.3759 529.652 54.2399 529.652 50.2079C529.652 47.7119 528.916 45.5679 527.444 43.7759C525.972 41.9839 524.052 40.3519 521.684 38.8799C519.38 37.4079 516.916 35.9999 514.292 34.6559C511.668 33.2479 509.172 31.7439 506.804 30.1439C504.5 28.4799 502.612 26.5599 501.14 24.3839C499.668 22.1439 498.932 19.5199 498.932 16.5119C498.932 14.0159 499.604 11.5519 500.948 9.11989C502.292 6.62389 504.436 4.54389 507.38 2.87989C510.324 1.21589 514.196 0.383888 518.996 0.383888C521.62 0.383888 524.468 0.703888 527.54 1.34389C530.612 1.98389 533.268 2.65589 535.508 3.35989L534.548 9.88789C530.836 8.28789 527.156 6.97589 523.508 5.95189C519.86 4.86389 516.148 4.31989 512.372 4.31989C510.516 5.21589 509.204 6.39989 508.436 7.87189C507.732 9.27989 507.38 10.8479 507.38 12.5759C507.38 15.1359 508.148 17.4079 509.684 19.3919C511.22 21.3119 513.204 23.1039 515.636 24.7679C518.132 26.3679 520.724 27.9359 523.412 29.4719C526.164 31.0079 528.756 32.6719 531.188 34.4639C533.684 36.2559 535.7 38.2719 537.236 40.5119C538.772 42.7519 539.54 45.3759 539.54 48.3839C539.54 51.7119 538.708 54.7519 537.044 57.5039C535.38 60.1919 532.884 62.3359 529.556 63.9359C526.228 65.4719 522.036 66.2399 516.98 66.2399ZM577.14 66.2399C571.828 66.2399 566.996 65.0559 562.644 62.6879C558.292 60.2559 554.836 56.7359 552.276 52.1279C549.716 47.4559 548.436 41.7599 548.436 35.0399C548.436 29.7919 549.14 25.2159 550.548 21.3119C551.956 17.4079 553.844 14.1439 556.212 11.5199C558.644 8.83189 561.332 6.68789 564.276 5.08789C567.284 3.42389 570.356 2.23989 573.492 1.53588C576.692 0.767887 579.764 0.383888 582.708 0.383888C588.084 0.383888 592.948 1.56789 597.3 3.93589C601.652 6.30389 605.108 9.79189 607.668 14.3999C610.228 19.0079 611.508 24.6719 611.508 31.3919C611.508 36.6399 610.804 41.2159 609.396 45.1199C607.988 49.0239 606.068 52.3199 603.636 55.0079C601.204 57.6959 598.484 59.8719 595.476 61.5359C592.532 63.1999 589.46 64.3839 586.26 65.0879C583.124 65.8559 580.084 66.2399 577.14 66.2399ZM579.924 63.0719C583.764 63.0719 587.028 62.1439 589.716 60.2879C592.468 58.4319 594.676 56.0319 596.34 53.0879C598.068 50.1439 599.316 46.9439 600.084 43.4879C600.916 40.0319 601.332 36.7359 601.332 33.5999C601.332 29.6319 600.916 25.8879 600.084 22.3679C599.316 18.7839 598.004 15.6479 596.148 12.9599C594.356 10.2719 591.924 8.15989 588.852 6.62389C585.844 5.08789 582.068 4.31989 577.524 4.31989C573.236 5.79189 569.684 8.03189 566.868 11.0399C564.052 14.0479 561.972 17.5039 560.628 21.4079C559.284 25.3119 558.612 29.3759 558.612 33.5999C558.612 37.5039 558.996 41.2479 559.764 44.8319C560.596 48.3519 561.844 51.4879 563.508 54.2399C565.172 56.9919 567.348 59.1679 570.036 60.7679C572.788 62.3039 576.084 63.0719 579.924 63.0719ZM645.742 66.2399C641.006 66.2399 637.134 65.5999 634.126 64.3199C631.118 62.9759 628.75 61.3119 627.022 59.3279C625.358 57.2799 624.174 55.1359 623.47 52.8959C622.766 50.5919 622.318 48.4479 622.126 46.4639C621.998 44.4799 621.934 42.9119 621.934 41.7599V1.53588H631.726V42.5279C631.726 43.7439 631.758 45.2159 631.822 46.9439C631.95 48.6079 632.27 50.3039 632.782 52.0319C633.294 53.7599 634.126 55.3919 635.278 56.9279C636.494 58.4639 638.158 59.7119 640.27 60.6719C642.382 61.5679 645.102 62.0159 648.43 62.0159C653.934 62.0159 658.286 60.5439 661.486 57.5999C664.75 54.6559 666.382 49.7279 666.382 42.8159V1.53588H670.606V40.5119C670.606 42.0479 670.51 43.9039 670.318 46.0799C670.19 48.2559 669.742 50.5279 668.974 52.8959C668.27 55.1999 667.022 57.3759 665.23 59.4239C663.502 61.4719 661.07 63.1359 657.934 64.4159C654.798 65.6319 650.734 66.2399 645.742 66.2399ZM725.54 66.4319L703.268 34.7519H695.876V65.0879H686.468V1.53588H707.204C711.364 1.53588 715.108 2.17589 718.436 3.45589C721.764 4.67189 724.388 6.49589 726.308 8.92789C728.292 11.2959 729.284 14.2399 729.284 17.7599C729.284 22.3039 727.556 25.9199 724.1 28.6079C720.644 31.2319 716.26 33.0239 710.948 33.9839L736.676 65.0879L725.54 66.4319ZM695.876 31.8719H702.02C706.692 31.8719 710.244 31.1999 712.676 29.8559C715.172 28.5119 716.9 26.8159 717.86 24.7679C718.82 22.6559 719.3 20.4799 719.3 18.2399C719.3 17.9199 719.204 17.2159 719.012 16.1279C718.884 14.9759 718.5 13.6959 717.86 12.2879C717.22 10.8159 716.164 9.43989 714.692 8.15989C713.284 6.81589 711.3 5.79189 708.74 5.08789C706.884 5.08789 704.676 5.24789 702.116 5.56789C699.62 5.88789 697.54 6.27189 695.876 6.71989V31.8719ZM776.967 66.2399C772.359 66.2399 767.943 65.6319 763.719 64.4159C759.495 63.1359 755.719 61.2159 752.391 58.6559C749.127 56.0319 746.535 52.7679 744.615 48.8639C742.695 44.9599 741.735 40.3519 741.735 35.0399C741.735 28.8959 742.823 23.6479 744.999 19.2959C747.239 14.8799 750.183 11.2959 753.831 8.54389C757.479 5.72789 761.479 3.67989 765.831 2.39989C770.183 1.05589 774.471 0.383888 778.695 0.383888C780.679 0.383888 782.759 0.543888 784.935 0.863888C787.111 1.18389 789.127 1.56789 790.983 2.01589C792.839 2.46389 794.279 2.87989 795.303 3.26389L794.343 9.79189C790.887 8.31989 787.463 7.03989 784.071 5.95189C780.743 4.86389 776.999 4.31989 772.839 4.31989C766.055 5.85589 760.871 9.21589 757.287 14.3999C753.703 19.5199 751.911 25.8879 751.911 33.5039C751.911 39.9039 753.063 45.3119 755.367 49.7279C757.735 54.0799 760.935 57.3759 764.967 59.6159C768.999 61.7919 773.607 62.8799 778.791 62.8799C782.183 62.8799 785.543 62.4639 788.871 61.6319C792.199 60.7359 794.855 59.4239 796.839 57.6959V62.9759C794.919 63.7439 792.775 64.3839 790.407 64.8959C788.039 65.3439 785.671 65.6639 783.303 65.8559C780.999 66.1119 778.887 66.2399 776.967 66.2399ZM808.343 65.0879V1.53588H817.175V65.0879H808.343ZM881.155 66.1439L839.107 13.5359H838.723V65.0879H834.499V1.53588H841.603L878.179 47.7119H878.563V1.53588H882.787V66.1439H881.155ZM929.695 66.2399C925.215 66.2399 920.863 65.6319 916.639 64.4159C912.479 63.1359 908.703 61.2159 905.311 58.6559C901.983 56.0959 899.327 52.8639 897.343 48.9599C895.423 45.0559 894.463 40.4479 894.463 35.1359C894.463 28.9919 895.583 23.7439 897.823 19.3919C900.127 14.9759 903.103 11.3599 906.751 8.54389C910.463 5.72789 914.463 3.67989 918.751 2.39989C923.103 1.05589 927.327 0.383888 931.423 0.383888C933.407 0.383888 935.487 0.543888 937.663 0.863888C939.839 1.18389 941.855 1.56789 943.711 2.01589C945.567 2.46389 947.007 2.91189 948.031 3.35989L947.071 9.79189C943.359 8.19189 939.775 6.87989 936.319 5.85589C932.863 4.83189 929.279 4.31989 925.567 4.31989C919.167 5.91989 914.079 9.34389 910.303 14.5919C906.527 19.7759 904.639 26.1119 904.639 33.5999C904.639 39.9999 905.791 45.3759 908.095 49.7279C910.463 54.0799 913.663 57.3759 917.695 59.6159C921.727 61.7919 926.335 62.8799 931.519 62.8799C932.991 62.8799 934.463 62.8159 935.935 62.6879C937.407 62.4959 938.847 62.2399 940.255 61.9199V37.7279H949.567V62.9759C947.647 63.7439 945.503 64.3839 943.135 64.8959C940.767 65.3439 938.399 65.6639 936.031 65.8559C933.727 66.1119 931.615 66.2399 929.695 66.2399Z" fill="black"/>
</svg>
