<svg width="459" height="61" viewBox="0 0 459 61" fill="none" xmlns="http://www.w3.org/2000/svg">
<path d="M0.814375 59V57.88H9.69438V3.16H0.814375V2.04H18.8144L33.6144 45.08H33.7744L48.5744 2.04H66.2544V3.16H57.3744V57.88H66.2544V59H40.4944V57.88H49.3744V3.64H49.2144L30.0944 59.08L11.0544 4.2H10.8944V57.88H19.7744V59H0.814375ZM68.2637 59V57.88H75.3038L96.9038 0.599998H98.8238L120.584 57.88H127.704V59H103.064V57.88H111.944L103.544 35.64H84.9838L76.5838 57.88H85.4638V59H68.2637ZM103.064 34.52L94.2638 11.24L85.4638 34.52H103.064ZM187.139 37.48V38.6H180.739V56.76H179.779C178.659 55.56 178.179 55.24 176.579 55.24C172.739 55.24 169.299 60.2 159.219 60.2C151.699 60.2 146.099 57.8 140.659 52.36C135.379 47.08 131.379 39.72 131.379 30.68C131.379 18.44 137.779 11.48 140.579 8.68C145.379 3.88 151.539 0.599998 159.379 0.599998C167.539 0.599998 169.059 3.72 172.979 3.72C175.059 3.72 175.779 3.08 176.579 2.04H177.779V18.04H176.899C176.019 12.52 172.659 1.72 159.299 1.72C143.379 1.72 140.579 16.52 140.579 30.68C140.579 40.36 141.939 50.12 147.619 55.24C150.819 58.12 153.779 59.08 159.219 59.08C165.859 59.08 173.059 54.76 173.059 45.32V38.6H162.739V37.48H187.139ZM190.571 59V57.88H199.451V3.16H190.571V2.04H207.691L234.731 45.64H234.891V3.16H226.011V2.04H244.971V3.16H236.091V60.12H234.491L200.811 6.44H200.651V57.88H209.531V59H190.571ZM252.065 30.44C252.065 13.4 266.785 0.599998 279.905 0.599998C293.985 0.599998 307.745 13.4 307.745 30.44C307.745 45.4 295.505 60.2 279.905 60.2C263.825 60.2 252.065 45.88 252.065 30.44ZM261.265 30.44C261.265 49.64 266.145 59.08 279.905 59.08C293.665 59.08 298.545 49.64 298.545 30.44C298.545 15.72 295.505 1.72 279.905 1.72C264.305 1.72 261.265 15.72 261.265 30.44ZM315.588 59V57.88H324.468V3.16H315.588V2.04H341.348V3.16H332.468V57.88H346.708C356.068 57.88 361.188 51.56 363.588 41.48H364.468V59H315.588ZM370.593 59V57.88H379.473V3.16H370.593V2.04H396.353V3.16H387.473V57.88H396.353V59H370.593ZM398.889 59V57.88H405.929L427.529 0.599998H429.449L451.209 57.88H458.329V59H433.689V57.88H442.569L434.169 35.64H415.609L407.209 57.88H416.089V59H398.889ZM433.689 34.52L424.889 11.24L416.089 34.52H433.689Z" fill="#443F3F"/>
</svg>
