<svg width="121" height="86" viewBox="0 0 121 86" fill="none" xmlns="http://www.w3.org/2000/svg">
<path d="M45.487 3.04625C42.6449 4.07583 38.9529 5.53351 36.182 6.73834C35.3128 7.11551 35.7156 6.84374 35.1161 7.10355C33.9414 7.61596 32.8871 8.16898 31.7399 8.70347C31.3597 8.88073 31.7692 8.53338 31.372 8.72219C29.1978 9.76077 27.2054 10.876 25.0908 12.0889C21.0647 14.4584 16.8845 17.0036 14.0452 20.3614C12.81 21.6016 14.7172 23.2971 16.6422 24.3432C20.8004 26.5705 25.8417 27.4281 30.7333 28.4837C30.9276 28.523 31.1266 28.5632 31.3304 28.6043C35.1626 29.3777 39.724 30.2818 43.6481 30.9107C44.1304 30.9878 43.8622 30.8294 43.9553 30.8362C45.4143 30.9457 44.9003 31.0837 45.8322 31.2734C49.5339 32.0256 53.6761 32.7316 57.2675 33.2986C58.7906 33.539 57.3048 33.0632 58.8174 33.4461C58.9217 33.4724 58.5182 33.5226 58.931 33.6058C59.8766 33.7955 61.6767 34.0845 62.4121 34.2229C62.7845 34.2929 63.0773 34.3479 63.321 34.3934C64.0339 34.527 64.4179 34.5947 65.4023 34.7799C67.2385 35.1274 69.3987 35.628 71.3555 36.0807C71.7723 36.1774 71.2479 35.9228 71.9197 36.0697C72.5918 36.2109 74.3416 36.7099 74.9212 36.9321C75.4945 37.1449 75.2203 37.1576 75.3166 37.2113C76.1088 37.6394 78.1677 38.2018 78.4195 38.3385C79.3299 38.7411 80.1915 39.2185 80.979 39.7607C82.5795 40.8876 82.7679 42.8946 82.3833 44.4039C81.5591 46.9748 79.3631 48.0189 77.4635 49.1521C74.3466 50.8471 70.8677 52.2289 67.7696 53.3825C65.8527 54.0883 64.0649 54.6976 62.2915 55.2922C60.6341 55.8468 58.9661 56.3528 57.1876 56.8792C56.7963 56.9944 57.2921 56.9975 56.8182 57.1368C51.7688 58.6103 46.6949 59.8354 41.5872 60.9238C41.0744 61.0324 41.7041 60.7593 41.1907 60.8604C38.0464 61.4864 33.0507 62.3298 31.3015 63.2567C29.1777 63.6927 26.5947 64.2163 24.6746 64.5073C23.4418 64.6939 24.5924 64.3148 23.108 64.6843C22.7708 64.768 23.2381 64.7914 22.7278 64.9086C22.4594 64.9702 22.1903 65.0306 21.9214 65.09C20.0025 65.5137 17.9832 65.8955 16.1182 66.2962C15.6887 66.3886 15.828 66.4707 15.7083 66.5122C14.6996 66.8575 12.9316 66.8965 12.5433 66.9372C9.64516 67.2424 7.55373 67.6134 4.77782 67.6195C4.13193 67.6049 4.89496 67.7678 4.26819 67.7521C3.24966 67.695 2.18276 67.6506 1.08541 67.0045C0.472866 66.6627 -0.0459885 65.8079 0.00260904 65.065C0.0177694 64.3289 0.286214 63.728 0.559459 63.2098C1.13585 62.162 1.8634 61.3264 2.60676 60.539C3.09692 60.0325 2.74293 60.5906 2.98378 60.3528C4.03868 59.3412 4.11062 58.969 5.1818 58.0673C5.40709 57.8809 5.35298 58.0682 5.40046 58.0413C6.14762 57.62 6.54011 56.9637 6.69858 56.8247C8.75205 55.0358 10.2995 54.219 12.4042 52.6761C12.6566 52.4926 12.0043 52.7902 12.7204 52.2806C15.2052 50.519 17.8406 48.8131 20.523 47.2168C23.0166 45.7317 25.6357 44.5034 28.2193 43.4704C29.0572 43.1376 28.5013 43.4771 28.5584 43.4663C29.4826 43.288 29.943 42.8339 30.2128 42.7171C32.3464 41.805 34.4562 41.2958 35.8452 40.5005C37.4687 39.9665 39.0926 39.4456 40.716 38.9254C48.4044 36.4663 56.1824 34.3689 64.058 32.8864C64.1791 32.8634 63.99 33.033 64.2313 32.9865C65.52 32.74 66.1211 32.5946 66.5547 32.4491C67.0989 32.2674 67.3755 32.0872 68.4211 31.7407C68.894 31.5834 70.4249 31.5769 70.5592 31.5733C71.0494 31.5578 70.5918 31.8367 70.7538 31.8208C72.0927 31.6846 71.7621 31.1161 73.5435 30.7858C73.5994 30.7766 73.3861 30.9316 73.5375 30.9152C74.0086 30.8646 74.4604 30.7365 74.9226 30.6932C75.9794 30.5963 76.4014 30.8253 77.9619 30.3802C78.1591 30.3241 77.7927 30.028 79.3903 29.7775C80.0269 29.6756 82.8434 29.2174 83.6379 29.1215C84.4298 29.0231 83.9055 29.2178 83.9626 29.214C86.1119 29.0398 85.313 29.2241 86.4122 29.2857C87.5091 29.3495 87.1379 28.8725 87.5649 28.7522C87.9925 28.6314 89.5732 28.5379 89.9613 28.5302C90.3521 28.5212 89.8816 28.6565 90.2267 28.6349C92.5076 28.4953 91.1871 28.246 91.9221 28.067C92.5195 27.9225 93.0836 27.8545 93.6246 27.8226C94.6711 27.76 95.6319 27.8285 96.7006 27.7418C97.1366 27.7069 96.7733 27.6551 97.1578 27.6073C98.6978 27.4208 99.6415 27.455 101.388 27.2085C101.68 27.167 103.081 26.8323 104.019 26.9541C104.151 26.9718 103.786 27.0886 104.445 27.075C105.43 27.0529 107.214 27.0074 108.274 26.961C109.051 26.9262 108.154 26.7763 109.144 26.8165C109.58 26.8365 108.77 26.9335 109.595 26.9645C110.415 26.9895 112.511 27.0329 113.305 27.0828C114.102 27.126 113.674 26.9798 113.739 26.9751C114.13 26.9452 115.668 27.0249 115.803 27.0479C116.616 27.1383 117.424 27.2581 118.213 27.4302C119.624 27.6815 120.832 28.9391 120.973 30.3525C121.208 35.475 116.609 38.1998 113.231 40.9664C112.815 41.2765 113.169 41.1762 113.107 41.2246C111.686 42.3116 112.633 41.2172 111.555 41.8373C111.85 41.9474 111.227 42.3316 110.198 43.0584C109.708 43.4038 110.034 43.3058 109.995 43.3447C109.326 43.9755 108.704 44.1438 108.543 44.2006C107.96 44.4039 107.523 44.8936 107.121 45.0329C106.732 45.1646 107.429 44.5463 106.424 45.1894C106.189 45.449 107.075 45.1743 106.323 45.6986C103.998 47.3236 99.8067 49.7655 97.0745 51.3877C96.5025 51.7271 95.9588 52.0473 95.5497 52.2907C93.172 53.7 92.4098 54.1584 90.9972 54.9449C88.4513 56.3509 89.4669 55.9699 87.942 56.9406C86.4067 57.9128 86.9533 57.089 86.6801 57.1352C86.4126 57.1778 86.2196 57.4006 85.917 57.5121C85.6151 57.6232 86.181 57.2275 85.5215 57.5791C84.866 57.9292 83.1749 59.0775 82.9931 59.2935C82.6097 59.7512 83.5162 59.4975 81.7611 60.3921C81.6598 60.4436 81.9244 60.1617 81.5392 60.3639C78.4861 61.9703 75.3488 63.7008 72.296 65.2949C71.8767 65.5136 72.1845 65.1955 71.9392 65.3218C69.3871 66.6347 70.3871 66.333 69.1299 67.3037C69.2834 66.8496 68.4255 67.0963 66.5156 68.1469C65.3718 68.7761 65.6309 68.7947 64.9412 69.2889C64.7377 69.4355 63.8714 69.8029 63.7593 69.9408C63.3815 70.398 64.2617 70.1887 62.2507 71.1905C62.163 71.2338 62.3776 70.979 62.0788 71.1362C60.1282 72.1632 60.0093 72.4881 57.9467 73.6713C56.8122 74.3229 55.0006 75.2664 53.3952 76.1306C52.7066 76.5017 52.0737 76.8459 51.5287 77.1524C51.395 76.8088 49.6854 77.8931 49.1147 78.5186C47.917 79.2064 46.6587 79.9666 45.4939 80.63C45.0945 80.8578 45.2984 80.6114 45.2428 80.6317C44.3913 80.9387 44.0146 81.4593 43.7655 81.6254C42.1056 82.7674 40.3913 83.6453 39.2452 84.8992C39.2132 84.9423 39.188 85.0013 39.1947 84.9839C39.2066 84.9796 39.1757 84.8593 39.1268 84.8408C39.0845 84.8177 39.0969 84.8298 39.1106 84.8283C39.1807 84.8317 39.3173 84.8048 39.4314 84.7755C39.6714 84.714 39.9265 84.6266 40.1713 84.5366C40.6723 84.3513 41.1655 84.1404 41.6756 83.9052C41.769 83.861 41.8418 83.5635 42.6735 83.4256C42.7211 83.4197 41.8254 83.9086 43.1677 83.3713C44.505 82.8351 47.0666 81.8905 48.8672 80.9814C49.301 80.763 50.3361 80.0895 51.3175 79.8354C51.4439 79.8039 51.3438 79.9268 51.5305 79.8892C52.1334 79.7658 52.3611 79.3873 53.093 79.3031C53.2977 79.2783 53.5565 79.2253 53.8673 79.1389C54.6474 78.9289 55.7746 78.4934 57.0759 77.7998C57.1328 77.7698 57.4839 77.3935 58.08 77.1333C58.9994 76.7325 60.3392 76.1853 61.3202 75.749C61.779 75.5448 61.4342 75.5601 61.513 75.5226C64.6043 74.075 66.8825 73.1857 70.2496 71.7446C70.8638 71.482 72.5587 70.5423 73.8058 70.1377C75.1675 69.6963 74.0798 70.8532 77.0189 69.3902C78.2067 68.7998 79.4206 67.406 81.7609 66.8158C85.9411 64.8601 89.925 63.3342 94.112 61.354C94.2962 61.2668 94.8176 60.8016 95.2676 60.6094C95.9346 60.3249 96.3367 60.2619 96.82 60.0599C98.8248 59.2253 100.61 58.3617 102.548 57.5509C103.274 57.2473 103.075 57.4465 103.944 57.0842C104.816 56.7214 105.332 56.3521 106.561 55.9116C107.175 55.6932 107.882 55.5584 108.609 55.3652C108.958 55.2694 109.315 55.1605 109.679 55.0234C109.61 54.7498 110.431 54.4171 111.87 53.7698C112.142 53.6473 111.806 53.6747 111.935 53.6111C112.479 53.3434 112.989 53.233 113.495 52.9823C113.614 52.923 113.586 52.8313 113.68 52.7785C114.512 52.3097 116.043 51.9997 116.304 51.9572C117.315 51.7742 117.722 51.5198 118.505 51.389C119.266 51.2842 118.163 51.5823 119.049 51.4419C119.349 51.4054 119.666 51.3668 119.969 51.4285C120.111 51.46 120.225 51.5315 120.239 51.648C120.259 51.7695 120.207 51.9301 120.141 52.0757C119.851 52.6767 119.396 53.2347 118.976 53.7933C118.532 54.3731 118.088 54.9397 117.679 55.4525C117.205 56.0467 117.628 55.7205 117.562 55.8074C116.606 57.0588 115.49 58.2002 115.129 59.0344C113.924 59.4523 114.575 59.8081 113.021 61.4423C112.898 61.5713 112.516 61.5407 112.92 60.9931C113.325 60.4448 114.062 59.7186 114.609 58.9478C114.74 58.7655 115.328 57.5941 115.424 57.4478C116.181 56.3044 116.66 56.4459 116.727 56.405C117.458 55.9415 118.182 54.5186 118.413 54.1803C118.539 53.9985 118.665 53.8197 118.786 53.6484C119.236 53.0015 119.737 52.3678 119.926 51.8344C119.97 51.6994 119.924 51.6827 119.972 51.748C120.008 51.767 119.881 51.7144 119.744 51.7199C119.457 51.7196 119.137 51.7834 118.812 51.867C117.857 52.1349 117.848 52.4738 117.085 52.6994C114.586 53.4973 113.547 53.4687 111.328 54.7372C110.843 55.0171 111.488 55.1122 109.585 55.6026C109.531 55.6165 109.212 55.6893 108.795 55.8154C108.327 55.9528 107.707 56.1731 107.321 56.4233C107.234 56.4804 107.274 56.5687 107.152 56.6287C106.314 57.0351 105.727 57.1978 104.797 57.6307C103.893 58.053 102.797 58.5791 101.714 59.0067C101.076 59.258 100.18 59.4462 99.8538 59.5384C98.954 59.7866 98.0941 60.3858 97.5079 60.4712C96.9066 60.5624 97.8715 59.8875 96.4107 60.4111C96.4579 60.6655 96.4402 60.9553 96.4584 61.2238C93.3684 62.5546 90.2863 63.8147 87.1942 65.1863C86.8117 65.3563 87.2583 65.308 86.8494 65.4936C85.1172 66.2791 83.5656 66.8577 81.7789 67.689C80.3975 68.3323 78.9274 69.1397 77.4848 69.8181C76.4773 69.9486 74.3591 70.9945 72.7748 71.6686C72.223 71.9034 72.2286 71.8166 71.8254 71.968C70.31 72.5387 71.1069 72.4641 70.7193 72.68C69.0504 73.6081 68.6653 73.1476 66.6316 74.0658C66.5196 74.1162 65.3176 74.9863 65.1478 75.0826C64.0323 75.7142 64.9104 75.0708 64.1729 75.3731C62.8418 75.9182 61.8828 76.2633 60.3621 77.0355C59.9267 77.2576 58.9125 77.9163 57.9656 78.1727C57.8411 78.2065 57.8644 78.085 57.7683 78.121C56.0486 78.7722 56.1299 79.0853 55.2016 79.6126C54.9255 79.7691 54.5966 79.9174 54.267 80.0481C53.4379 80.3789 52.6086 80.6082 52.366 80.6655C51.5025 80.8638 52.9567 80.3303 52.9894 80.2981C53.4173 79.9007 52.3278 80.4149 51.5043 80.7567C51.2455 80.528 50.1049 81.0455 50.6318 81.1203C50.6884 81.1289 51.3235 80.8201 51.5043 80.7567C50.8827 81.3635 49.63 81.9528 48.0948 82.3014C47.3769 82.4628 47.9439 82.0522 45.9488 82.9649C45.0407 83.3776 45.4901 83.4222 44.6909 83.8213C43.875 84.2277 42.9289 84.6113 41.9308 84.9758C41.437 85.1552 40.9328 85.3302 40.4146 85.4916C40.1615 85.5691 39.8988 85.6484 39.6066 85.7122C39.4341 85.7404 39.3517 85.7897 38.9829 85.7633C38.9267 85.7559 38.8645 85.7436 38.7939 85.719C38.7054 85.6886 38.5828 85.6273 38.4788 85.5204C38.2023 85.2385 38.248 84.8753 38.2803 84.7639C38.3589 84.4995 38.4174 84.4559 38.4721 84.3657C38.6518 84.1117 38.8286 83.9439 38.9949 83.7854C39.6143 83.2358 38.9259 83.664 39.3502 83.2994C40.4756 82.3849 41.5366 81.8264 42.6777 81.047C42.7823 80.9762 42.4558 81.0351 42.8213 80.804C45.5623 79.0803 48.05 77.7237 50.956 76.0473C51.4501 75.7629 52.0653 75.4001 52.7476 74.9982C53.9884 74.2666 55.377 73.4544 56.3456 72.9216C58.902 71.5134 62.1338 69.9317 64.3005 68.6861C65.704 67.8798 65.3421 67.9384 65.9072 67.5306C67.0073 66.7375 69.2318 65.8457 69.5341 65.7307C69.5426 65.7277 68.3341 66.4271 69.0169 66.1232C69.4602 66.0299 69.5206 65.7388 69.5341 65.7307C69.735 65.6535 72.194 64.3293 72.6685 64.0399C72.9265 63.8827 72.722 63.8618 72.8576 63.7818C76.0785 61.8827 79.3356 60.0423 82.6648 58.2324C82.724 58.2018 82.7008 58.3652 82.8393 58.2918C84.7808 57.2654 85.9155 56.4368 87.4404 55.4542C88.9659 54.4706 90.2071 53.7862 91.2514 53.4356C92.417 52.7219 94.1346 51.8162 95.1337 51.2799C96.1275 50.7474 96.1253 50.4465 96.2053 50.392C96.2658 50.3502 96.3256 50.309 96.3845 50.2685C98.8348 48.5894 100.426 47.7818 103.09 46.1528C104.388 45.3614 106.927 43.7148 108.277 42.7887C109.349 42.0559 110.027 41.6717 110.983 40.9596C111.112 40.8632 110.914 40.8633 110.952 40.8315C111.948 39.9638 111.596 40.5495 111.847 40.4325C112.746 40.0042 113.325 39.7165 114.588 38.5964C114.873 38.3451 115.493 37.3025 115.966 36.8245C116.602 36.1814 116.461 36.5253 117.081 35.8338C117.128 35.7766 117.066 35.7248 117.439 35.3084C118.686 33.9123 119.701 32.2039 119.453 30.5655C119.385 30.0435 119.116 29.5858 118.717 29.3087C118.515 29.1779 118.699 29.4515 118.406 29.2898C118.245 29.2102 118.061 29.1476 117.855 29.1047C115.628 28.6502 113.053 28.5115 110.755 28.4168C110.12 28.3926 110.519 28.2992 110.38 28.2686C109.527 28.0822 108.311 28.3556 108.113 28.3653C103.342 28.5976 99.6518 28.6813 94.7915 29.3394C94.6877 29.354 94.3134 29.442 93.8312 29.5387C93.1047 29.6848 92.1484 29.8495 91.5773 29.7799C91.515 29.772 90.5814 29.6497 89.8064 29.9212C89.7578 29.9383 90.3367 29.9847 89.3545 30.1055C88.3725 30.2265 86.8123 30.5313 85.4473 30.5977C85.0155 30.6187 83.9725 30.5317 82.7332 30.9207C82.6526 30.9457 80.7654 31.6862 80.0193 31.5081C79.8987 31.4788 79.9644 31.1445 78.4799 31.5598C78.1964 31.64 78.7315 31.6202 77.9797 31.7934C76.8269 32.0596 75.2697 32.2482 73.8674 32.65C73.6229 32.7201 72.6032 33.1275 71.7243 33.1299C71.5866 33.1302 71.8194 32.978 71.3688 33.0523C69.8877 33.2968 68.372 33.621 66.8622 33.9278C66.1865 34.0652 65.5135 34.1986 64.8433 34.3198C64.075 34.4597 64.4291 34.2078 63.6236 34.3373C62.8181 34.4663 61.2073 34.7849 60.3952 35.0549C59.5836 35.3246 60.5512 35.3768 59.3149 35.6905C53.9452 37.0611 48.6039 38.3327 43.3175 39.9558C42.5335 40.198 43.2113 40.0855 42.061 40.4527C41.814 40.532 41.5562 40.6156 41.2914 40.7023C36.9522 42.0948 30.3644 44.4591 27.043 45.8239C24.2007 46.9695 27.6344 45.213 25.4873 46.157C24.4503 46.6204 23.522 47.4766 23.2911 47.6156C22.6196 48.0154 22.0099 48.3773 21.4328 48.7241C20.0302 49.5684 18.7833 50.2765 17.3691 51.2312C16.9559 51.5111 17.4363 51.3508 17.0836 51.5887C15.8836 52.4007 14.5894 53.2097 13.4639 54.0163C12.9628 54.3767 13.1094 54.3928 12.6416 54.7188C11.5229 55.5034 10.5379 56.1875 9.4344 56.9345C9.33362 57.003 9.89987 56.4038 9.10451 57.0226C7.81788 58.0295 6.20724 59.256 4.9478 60.6181C4.58516 61.0201 4.71447 61.182 3.82031 61.9274C3.65099 62.0804 3.60213 61.6762 2.95927 62.8472C2.91444 62.9392 2.59826 63.48 2.34889 64.0545C2.21817 64.3515 2.1224 64.6365 2.07468 64.8463C2.02669 65.0552 2.02819 65.1427 1.98711 65.1796C1.96447 65.205 1.83724 65.3099 2.0322 65.5128C2.11317 65.5951 2.24752 65.6745 2.39117 65.7153C2.4566 65.7309 2.2434 65.5355 2.63484 65.6505C4.1632 66.0203 6.28796 65.8697 8.2371 65.6365C8.76477 65.5687 7.96728 65.532 8.74823 65.4327C10.9134 65.1533 13.6304 64.7256 15.7683 64.3666C16.5601 64.2335 16.0336 64.4368 16.0927 64.4372C17.0432 64.4444 17.5443 64.0949 17.8439 64.0218C19.2049 63.6915 20.3475 63.502 21.5417 63.2705C21.9874 63.1842 22.4583 63.0886 22.9354 62.9802C23.4148 62.8716 23.0496 62.828 23.1433 62.7977C24.1217 62.4884 23.4239 62.8499 24.0583 62.7408C25.8398 62.4348 27.8093 62.0095 29.5932 61.6125C30.2498 61.4661 29.4814 61.4914 30.072 61.3613C33.552 60.5914 37.1704 59.8084 40.573 59.101C41.2135 58.968 40.8362 59.1626 40.9744 59.1553C41.9287 59.1072 43.2178 58.5689 43.5199 58.4745C44.8992 58.0445 45.4638 58.0033 46.6943 57.6839C51.3657 56.463 56.9243 55.0364 61.6546 53.445C63.0223 52.9828 64.3304 52.5322 65.546 52.1016C71.5865 49.7432 78.2756 48.1067 80.5821 43.9611C80.718 43.4112 80.7247 42.8 80.5763 42.2936C80.4807 42.002 80.4466 42.3315 80.3576 42.1023C80.2282 41.8013 80.0519 41.5852 79.823 41.4282C76.344 39.0744 71.7973 38.1054 67.3454 37.176C66.9342 37.0952 67.503 37.3456 66.8363 37.2202C65.6619 37.001 64.2142 36.7274 62.9538 36.4772C62.7563 36.4378 62.5605 36.3982 62.3687 36.3587C61.6887 36.2192 62.6193 36.2666 61.9432 36.1301C60.3606 35.8109 58.6529 35.5094 57.012 35.252C56.3105 35.1422 57.3424 35.4547 56.4354 35.3022C50.2631 34.2681 44.1888 33.28 37.977 31.9983C37.5541 31.9107 37.2232 31.5727 36.3061 31.4607C36.2238 31.5233 36.2115 31.6123 36.167 31.6871C34.4144 31.3787 32.6578 31.0568 30.9185 30.7176C25.7976 29.6255 20.5946 28.8603 15.5916 26.2438C14.6129 25.6895 13.6368 25.0734 12.7502 24.143C11.8852 23.3199 11.0084 21.4619 11.7668 19.9295C12.0164 19.4246 11.4246 20.2173 11.9593 19.2662C12.0332 19.1516 12.1061 19.0484 12.1869 18.9425C15.1927 15.3367 18.7098 13.1333 22.4984 10.9004C22.8825 10.6839 22.8239 11.0123 23.9229 10.314C24.1145 10.1872 25.8039 9.17515 26.2217 8.885C26.278 8.84424 25.9063 8.91337 26.4581 8.60363C29.6746 6.80544 33.1539 5.12641 36.5447 3.71883C37.0925 3.49224 36.5655 3.86157 36.9557 3.70184C39.721 2.56889 42.7223 1.29051 45.4669 0.477014C47.3105 -0.0616452 46.7037 0.376728 47.7372 0.271821C47.8818 0.256018 49.0119 -0.0849135 49.1074 0.0202983C49.347 0.279511 48.9022 0.775104 49.2227 1.0318C49.2926 1.08351 50.7571 0.577755 49.9263 1.00133C49.8706 1.02787 48.7988 1.40901 48.557 1.54893C48.3856 1.64555 48.7545 1.66471 48.3958 1.83213C48.0381 1.99982 47.588 2.0301 46.9914 2.29329C46.3942 2.56025 46.7057 2.60375 45.487 3.04625ZM99.5941 48.8568C100.55 48.4118 100.445 47.9498 99.5385 48.6341C99.4946 48.6678 99.5447 48.8802 99.5941 48.8568ZM90.1724 63.4974C88.8379 63.8661 88.1068 64.5051 89.0461 64.2597C89.9902 64.0122 90.5773 63.3856 90.1724 63.4974ZM103.097 57.745C101.577 58.2228 101.6 58.9052 103.106 58.1233C103.196 58.0771 103.188 57.7162 103.097 57.745ZM43.3178 1.85368C43.3336 1.85334 44.1303 1.5689 44.1472 1.55744C44.5227 1.26903 42.9274 1.83783 43.3178 1.85368ZM116.064 52.384C115.553 52.4635 114.252 53.046 114.866 52.9357C115.375 52.8368 116.67 52.2899 116.064 52.384ZM96.7668 27.9551C96.7509 27.9498 96.1458 28.0079 96.1611 28.0445C96.2175 28.1603 97.0504 28.0384 96.7668 27.9551ZM108.226 66.4444C109.417 65.2832 110.389 64.3234 110.853 63.9875C111.133 63.7816 111.213 63.8007 110.998 64.1146C110.823 64.3681 110.462 64.8097 109.844 65.4666C109.367 65.9768 110.728 64.2382 110.099 64.8656C108.944 65.9944 108.467 67.0798 106.981 67.9304C106.741 68.0958 108.12 66.6077 108.23 66.4396C108.229 66.4412 108.228 66.4428 108.226 66.4444ZM100.39 48.9994C100.412 48.9927 101.121 48.5627 101.139 48.5445C101.449 48.1858 100.011 49.0592 100.39 48.9994ZM61.8934 33.4909C61.8453 33.4871 59.9458 33.9105 59.8871 33.9378C58.9515 34.3915 62.7876 33.536 61.8934 33.4909ZM51.4954 77.1604C50.7686 77.7446 49.8432 78.3014 49.1184 78.5166C49.9099 78.0653 50.6944 77.6121 51.4954 77.1604Z" fill="black"/>
</svg>
