<svg width="441" height="61" viewBox="0 0 441 61" fill="none" xmlns="http://www.w3.org/2000/svg">
<path d="M0.242188 59V41.8H1.12219C4.80219 59.16 14.6422 59.08 20.5622 59.08C31.8422 59.08 34.7222 51.32 34.7222 46.12C34.7222 38.68 28.4822 35.64 24.0022 34.28L14.8022 31.48C6.16219 28.84 1.68219 24.68 1.68219 17.4C1.68219 7.72 8.88219 0.599998 19.2022 0.599998C26.6422 0.599998 28.7222 3.72 31.7622 3.72C33.1222 3.72 33.3622 3.56 34.1622 2.04H35.2822V16.52H34.3222C33.0422 8.84 28.3222 1.72 19.2022 1.72C14.0022 1.72 6.00219 4.2 6.00219 12.68C6.00219 19.56 12.0022 21.88 17.5222 23.64L27.2022 26.68C31.2022 27.96 40.8822 30.36 40.8822 41.32C40.8822 51.24 33.2022 60.2 20.5622 60.2C16.0822 60.2 14.1622 59.96 10.4822 59C8.40219 58.36 5.68219 57.24 3.84219 57.24C2.24219 57.24 1.84219 57.96 1.44219 59H0.242188ZM53.0416 30.44C53.0416 13.4 67.7616 0.599998 80.8816 0.599998C94.9616 0.599998 108.722 13.4 108.722 30.44C108.722 45.4 96.4816 60.2 80.8816 60.2C64.8016 60.2 53.0416 45.88 53.0416 30.44ZM62.2416 30.44C62.2416 49.64 67.1216 59.08 80.8816 59.08C94.6416 59.08 99.5216 49.64 99.5216 30.44C99.5216 15.72 96.4816 1.72 80.8816 1.72C65.2816 1.72 62.2416 15.72 62.2416 30.44ZM115.844 3.16V2.04H141.604V3.16H132.724V41.8C132.724 54.6 137.364 59.08 145.924 59.08C151.844 59.08 156.484 57.48 159.764 53.08C161.844 50.28 163.124 48.04 163.124 40.36V3.16H154.244V2.04H173.204V3.16H164.324V41.96C164.324 46.36 163.604 49.88 160.644 53.8C157.764 57.64 152.884 60.2 144.484 60.2C131.764 60.2 124.724 53.96 124.724 41V3.16H115.844ZM177.267 59V57.88H186.147V3.16H177.267V2.04H192.467C193.747 2.04 195.027 1.96 196.307 1.88C197.587 1.88 198.867 1.8 200.147 1.8C206.387 1.8 211.027 2.04 215.187 5.32C218.867 8.2 220.307 12.12 220.307 15.32C220.307 18.44 218.627 26.44 206.227 28.04V28.2C209.667 28.68 219.027 30.2 221.107 37.48C222.307 41.64 221.987 49.16 222.787 52.84C223.427 55.64 224.547 58.28 227.667 58.28C229.027 58.28 230.627 57.72 231.827 56.6L232.547 57.48C231.427 58.36 229.987 59.56 225.507 59.56C216.947 59.56 214.707 55.32 214.067 47.24L213.507 39.96C212.707 29.24 205.827 29 202.147 29H194.147V57.88H203.027V59H177.267ZM194.147 3.16V27.88H201.507C207.427 27.88 211.507 25.32 211.507 15.48C211.507 4.28 205.187 2.92 199.587 2.92C197.667 2.92 195.507 3 194.147 3.16ZM286.282 41.96V59H285.082C284.362 58.2 283.562 57.32 281.562 57.32C278.442 57.32 274.122 60.2 266.762 60.2C260.042 60.2 253.562 57.88 247.962 52.36C242.762 47.16 238.762 40.04 238.762 30.68C238.762 14.68 251.002 0.599998 267.322 0.599998C273.962 0.599998 277.242 3.72 280.442 3.72C282.522 3.72 283.242 2.92 283.962 2.04H285.162V18.04H284.282C282.362 9.88 278.842 1.72 266.602 1.72C249.562 1.72 247.962 18.68 247.962 30.68C247.962 53.16 255.562 59.08 266.602 59.08C280.842 59.08 283.242 50.12 285.402 41.96H286.282ZM292.976 59V57.88H301.856V3.16H292.976V2.04H318.736V3.16H309.856V57.88H318.736V59H292.976ZM323.032 59V57.88H331.912V3.16H323.032V2.04H340.152L367.192 45.64H367.352V3.16H358.472V2.04H377.432V3.16H368.552V60.12H366.952L333.272 6.44H333.112V57.88H341.992V59H323.032ZM441.006 37.48V38.6H434.606V56.76H433.646C432.526 55.56 432.046 55.24 430.446 55.24C426.606 55.24 423.166 60.2 413.086 60.2C405.566 60.2 399.966 57.8 394.526 52.36C389.246 47.08 385.246 39.72 385.246 30.68C385.246 18.44 391.646 11.48 394.446 8.68C399.246 3.88 405.406 0.599998 413.246 0.599998C421.406 0.599998 422.926 3.72 426.846 3.72C428.926 3.72 429.646 3.08 430.446 2.04H431.646V18.04H430.766C429.886 12.52 426.526 1.72 413.166 1.72C397.246 1.72 394.446 16.52 394.446 30.68C394.446 40.36 395.806 50.12 401.486 55.24C404.686 58.12 407.646 59.08 413.086 59.08C419.726 59.08 426.926 54.76 426.926 45.32V38.6H416.606V37.48H441.006Z" fill="#443F3F"/>
</svg>
